# xmcd
#
# Track frame offsets:
#	150
#	23893
#	77257
#	98745
#	129599
#	194146
#	217031
#
# Disc length: 3432 seconds
#
# Revision: 0
# Processed by: cddbd v1.5.1PL2 Copyright (c) Steve Scherf et al.
# Submitted via: EasyCDDAExtractor 4.6.0.1
#
DISCID=5b0d6607
DTITLE=คนะปฐมเอก จ.นครศรี ฯ - ดนตรีบรรเลงมโนราห์
DYEAR=2005
DGENRE=Thai Traditional
TTITLE0=โหมโรง
TTITLE1=บรรเลงเพลงรำ
TTITLE2=บรรเลงบทครูสอน
TTITLE3=บรรเลงบทสอนรำ
TTITLE4=ประกาษราชาครู ๑
TTITLE5=ประกาษราชาครู ๒
TTITLE6=บรรเลงบทในม่าน
EXTD=
EXTT0=
EXTT1=
EXTT2=
EXTT3=
EXTT4=
EXTT5=
EXTT6=
PLAYORDER=
